HIERARCHY
ROOT Hips
{
	OFFSET 0.000000 0.000000 0.000000 
	CHANNELS 6 Xposition Yposition Zposition Zrotation Yrotation Xrotation
	JOINT LeftUpLeg
	{
		OFFSET 1.363060 -1.794630 0.839290 
		CHANNELS 3 Zrotation Yrotation Xrotation
		JOINT LeftLeg
		{
			OFFSET 2.448110 -6.726130 0.000000 
			CHANNELS 3 Zrotation Yrotation Xrotation
			JOINT LeftFoot
			{
				OFFSET 2.562200 -7.039590 0.000000 
				CHANNELS 3 Zrotation Yrotation Xrotation
				JOINT LeftToeBase
				{
					OFFSET 0.157640 -0.433110 2.322550 
					CHANNELS 3 Zrotation Yrotation Xrotation
					End Site
					{
						OFFSET 0.000000 0.000000 0.000000 
					}
				}
			}
		}
	}
	JOINT RightUpLeg
	{
		OFFSET -1.305520 -1.794630 0.839290 
		CHANNELS 3 Zrotation Yrotation Xrotation
		JOINT RightLeg
		{
			OFFSET -2.542530 -6.985550 0.000000 
			CHANNELS 3 Zrotation Yrotation Xrotation
			JOINT RightFoot
			{
				OFFSET -2.568260 -7.056230 0.000000 
				CHANNELS 3 Zrotation Yrotation Xrotation
				JOINT RightToeBase
				{
					OFFSET -0.164730 -0.452590 2.363150 
					CHANNELS 3 Zrotation Yrotation Xrotation
					End Site
					{
						OFFSET 0.000000 0.000000 0.000000 
					}
				}
			}
		}
	}
	JOINT Spine
	{
		OFFSET 0.028270 2.035590 -0.193380 
		CHANNELS 3 Zrotation Yrotation Xrotation
		JOINT Spine1
		{
			OFFSET 0.056720 2.048850 -0.042750 
			CHANNELS 3 Zrotation Yrotation Xrotation
			JOINT Neck1
			{
				OFFSET -0.054170 1.746240 0.172020 
				CHANNELS 3 Zrotation Yrotation Xrotation
				JOINT Head
				{
					OFFSET 0.104070 1.761360 -0.123970 
					CHANNELS 3 Zrotation Yrotation Xrotation
					End Site
					{
						OFFSET 0.000000 0.000000 0.000000 
					}
				}
			}
			JOINT LeftArm
			{
				OFFSET 3.362410 1.200890 -0.311210 
				CHANNELS 3 Zrotation Yrotation Xrotation
				JOINT LeftForeArm
				{
					OFFSET 4.983000 -0.000000 -0.000000 
					CHANNELS 3 Zrotation Yrotation Xrotation
					JOINT LeftHand
					{
						OFFSET 3.483560 -0.000000 -0.000000 
						CHANNELS 3 Zrotation Yrotation Xrotation
						JOINT LeftHandIndex1
						{
							OFFSET 0.715260 -0.000000 -0.000000 
							CHANNELS 3 Zrotation Yrotation Xrotation
							End Site
							{
								OFFSET 0.000000 0.000000 0.000000 
							}
						}
					}
				}
			}
			JOINT RightArm
			{
				OFFSET -3.136600 1.374050 -0.404650 
				CHANNELS 3 Zrotation Yrotation Xrotation
				JOINT RightForeArm
				{
					OFFSET -5.241900 -0.000000 -0.000000 
					CHANNELS 3 Zrotation Yrotation Xrotation
					JOINT RightHand
					{
						OFFSET -3.444170 -0.000000 -0.000000 
						CHANNELS 3 Zrotation Yrotation Xrotation
						JOINT RightHandIndex1
						{
							OFFSET -0.622530 -0.000000 -0.000000 
							CHANNELS 3 Zrotation Yrotation Xrotation
							End Site
							{
								OFFSET 0.000000 0.000000 0.000000 
							}
						}
					}
				}
			}
		}
	}
}
MOTION
Frames: 12
Frame Time: 0.041667
0.014743 17.613507 -31.682982 -6.733685 -4.795302 9.953538 -12.082038 -13.950167 -34.012085 1.401037 9.617699 26.166384 0.452245 -1.712718 3.325423 0.818100 5.771300 16.122400 32.273852 -3.982542 9.716220 -0.628744 -4.442400 13.594586 -0.242722 -0.015171 -7.942279 -0.025500 1.030700 -2.833200 1.975473 4.731032 -0.905464 3.366836 2.084071 -0.109317 -2.519282 -0.296033 8.314184 -1.790400 -0.849200 6.925300 -90.358390 12.661919 23.953376 16.063154 -26.257491 -3.456811 0.466002 -0.066263 6.367467 -7.125000 0.000000 0.000000 82.657264 13.306392 -6.078172 -5.043809 8.102506 0.217515 1.177023 0.347154 2.746469 7.125000 0.000000 0.000000 
0.027656 17.603238 -31.566460 -6.395052 -5.024745 9.636896 -12.599632 -13.989907 -33.445553 1.445314 9.705633 26.461562 0.428297 -1.532580 3.300653 0.677700 5.263900 14.662800 31.787268 -3.444986 9.293085 -0.859368 -5.223756 15.858911 -0.287749 0.314012 -8.099326 -0.004200 0.418900 -1.151100 1.904231 4.784519 -0.881286 3.462736 2.114009 -0.270431 -2.575244 -0.537997 7.322545 -1.833600 -0.953100 6.439900 -90.403902 12.723646 23.316694 15.864764 -25.973459 -3.362620 0.464898 -0.067615 6.781658 -7.125000 0.000000 0.000000 82.630900 13.617398 -5.773354 -4.978388 7.943529 0.234357 1.185384 0.337302 2.104977 7.125000 0.000000 0.000000 
0.042501 17.609847 -31.458175 -6.280130 -4.996178 9.461167 -13.040162 -13.590130 -33.104792 1.501035 9.767332 26.718028 0.527509 -2.450817 3.579605 0.844300 5.860900 16.381400 31.572671 -3.216806 8.555998 -1.117442 -6.009294 18.149535 -0.291059 0.443273 -7.872632 -0.023000 0.979100 -2.691400 1.799466 4.962626 -0.878298 3.310316 2.201506 -0.324051 -1.988116 -0.597169 7.579234 -1.566300 -0.945500 6.589900 -90.020861 12.669573 23.489716 15.764728 -25.809243 -3.304148 0.465229 -0.064800 6.983419 -7.125000 0.000000 0.000000 82.744348 13.506500 -6.020566 -5.234727 8.525071 0.170838 1.159906 0.358099 1.654145 7.125000 0.000000 0.000000 
0.057752 17.620116 -31.355685 -6.109463 -4.971902 9.238859 -13.310125 -13.785823 -32.602344 1.596695 9.911684 27.221089 0.601487 -3.199742 3.770333 1.123700 6.733300 18.927600 31.259326 -2.981109 7.875113 -1.380964 -6.719612 20.259558 -0.282856 0.501499 -7.563602 -0.073600 1.750100 -4.815400 1.672790 5.136021 -0.966357 3.050362 2.299676 -0.792276 -2.060362 -0.956204 7.492211 -1.715600 -1.100800 6.531800 -89.510100 12.953798 23.779219 15.694337 -25.672953 -3.262400 0.462263 -0.060118 6.687257 -7.125000 0.000000 0.000000 82.900125 13.390944 -6.160299 -5.248610 8.527025 0.168010 1.147732 0.383375 1.540028 7.125000 0.000000 0.000000 
0.070258 17.604967 -31.237944 -5.673202 -5.119047 8.961225 -13.990903 -13.724186 -32.195389 1.678584 10.033715 27.652686 0.688368 -4.154489 3.571978 0.958400 6.233700 17.464000 30.610177 -2.615882 7.385376 -1.681101 -7.425028 22.412336 -0.269404 0.659874 -6.912544 -0.031600 1.147300 -3.154100 1.550807 5.262333 -0.942342 3.103258 2.355897 -0.763873 -1.034917 -1.072030 7.639827 -1.224900 -1.090100 6.609300 -89.339760 13.100418 23.659735 15.860611 -25.906227 -3.337150 0.461705 -0.057038 6.664611 -7.125000 0.000000 0.000000 82.906753 13.563413 -6.242935 -5.225388 8.499650 0.165832 1.147864 0.371121 0.823654 7.125000 0.000000 0.000000 
0.085001 17.621540 -31.118271 -5.658873 -5.165664 8.585063 -14.129161 -13.691959 -31.418041 1.766244 10.180759 28.154514 0.719878 -4.514655 2.884322 1.101800 6.669700 18.740500 30.413239 -2.433986 7.080788 -1.982147 -8.086105 24.456252 -0.246009 0.782569 -6.049879 -0.061500 1.600500 -4.402900 1.559050 5.206917 -0.830028 3.256774 2.319603 -0.572414 -0.927269 -1.124398 7.129318 -1.132300 -1.114800 6.380400 -89.560464 13.028192 22.980072 15.807510 -25.845592 -3.308994 0.462715 -0.063152 6.988675 -7.125000 0.000000 0.000000 82.803938 13.450272 -5.844788 -5.619196 9.348283 0.075238 1.116278 0.411641 0.322161 7.125000 0.000000 0.000000 
0.102998 17.625912 -30.999716 -5.312071 -5.247424 8.340788 -14.693283 -13.832186 -30.915533 1.830665 10.287767 28.522199 0.723742 -4.607716 2.838945 1.049400 6.514200 18.283800 29.807481 -2.174137 6.427202 -2.318183 -8.753783 26.565786 -0.205346 0.730280 -5.062440 -0.078200 1.803300 -4.962500 1.431544 5.342492 -0.863362 3.099910 2.396006 -0.809793 -0.820570 -1.208205 6.818961 -1.114400 -1.135900 6.211700 -89.304731 12.874665 22.607623 15.426811 -25.282492 -3.139615 0.462375 -0.063950 7.448144 -7.125000 0.000000 0.000000 82.829565 13.645348 -6.619955 -5.530405 9.190101 0.086952 1.118112 0.389836 0.502555 7.125000 0.000000 0.000000 
0.111641 17.646552 -30.882178 -5.302783 -5.126043 7.973300 -14.923184 -13.598658 -30.323355 1.929062 10.426468 29.021241 0.800240 -5.431259 2.379748 1.111300 6.697500 18.822400 29.704770 -2.043308 5.960418 -2.649014 -9.375270 28.558982 -0.133510 0.401655 -3.642917 -0.065000 1.644700 -4.524800 1.370111 5.216306 -0.821513 2.982429 2.329706 -0.760553 -0.809052 -1.323943 7.191223 -1.186900 -1.184900 6.444000 -89.111846 12.674824 22.074905 15.156192 -24.892943 -3.029646 0.463275 -0.069076 7.823913 -7.125000 0.000000 0.000000 83.058550 13.696624 -5.002004 -5.738323 9.581656 0.048668 1.108516 0.426291 -1.262167 7.125000 0.000000 0.000000 
0.123944 17.649501 -30.758133 -5.402368 -5.265141 7.654719 -15.127129 -13.242068 -29.722525 1.989060 10.516646 29.344875 0.834707 -5.741357 1.762412 0.835100 5.829500 16.290500 29.666606 -1.640605 5.514612 -3.013720 -10.008273 30.636227 -0.079011 0.096886 -2.212438 -0.084300 1.873000 -5.154700 1.374406 5.258135 -0.729777 3.104504 2.336435 -0.523537 -0.292382 -1.456560 7.412827 -0.905000 -1.229300 6.598900 -89.170912 12.289522 21.905075 15.003218 -24.671789 -2.955237 0.465375 -0.066041 7.589618 -7.125000 0.000000 0.000000 82.892186 13.924377 -3.570718 -5.876616 9.850136 0.013390 1.089567 0.463642 -3.021189 7.125000 0.000000 0.000000 
0.129129 17.659567 -30.644459 -5.495265 -5.086612 7.472073 -15.314681 -13.036155 -29.369224 2.048488 10.604529 29.656643 0.848780 -5.913261 1.731396 0.590700 4.920700 13.682600 29.718093 -1.328341 4.883216 -3.386411 -10.624400 32.683337 0.005888 -0.712364 -0.786508 -0.018800 0.884900 -2.432200 1.321760 5.210749 -0.696301 2.992355 2.315092 -0.481419 -0.048544 -1.534480 7.088019 -0.838200 -1.240300 6.480800 -88.905808 12.015326 21.651349 14.918773 -24.544489 -2.911745 0.466579 -0.067149 7.827003 -7.125000 0.000000 0.000000 82.962918 14.461123 -3.776762 -5.776051 9.647077 0.042098 1.100517 0.459629 -3.102153 7.125000 0.000000 0.000000 
0.144381 17.677767 -30.510754 -5.231291 -5.028917 7.364122 -16.019665 -12.574276 -28.895922 2.073774 10.631211 29.774123 0.906326 -6.463408 1.138623 0.579900 4.876000 13.555400 29.200641 -1.188054 3.826054 -3.813581 -11.258306 34.858539 0.047861 -1.253764 0.880805 -0.014400 0.773700 -2.126400 1.339353 5.109165 -0.647551 3.447912 2.246927 -0.226275 0.492244 -1.504602 7.108010 -0.502100 -1.208300 6.508800 -89.306594 11.829351 20.886376 14.856799 -24.482438 -2.890922 0.466303 -0.068674 8.258637 -7.125000 0.000000 0.000000 82.620048 14.637743 -2.095839 -5.942075 9.948036 -0.003747 1.062631 0.522851 -5.004123 7.125000 0.000000 0.000000 
0.142550 17.670344 -30.386607 -5.489713 -4.976865 7.073627 -15.978854 -12.595727 -28.274476 2.088584 10.657396 29.878438 0.872119 -6.075910 1.072960 0.549500 4.749000 13.194100 29.447201 -0.874323 3.288915 -4.233377 -11.853134 36.944436 0.105054 -2.203985 2.589186 -0.003500 0.381300 -1.047700 1.337845 5.254465 -0.658882 3.531678 2.316928 -0.329166 0.881634 -1.793613 7.149824 -0.385800 -1.309900 6.500000 -89.089618 11.703972 20.984989 14.735124 -24.306288 -2.845261 0.465036 -0.066397 8.137096 -7.125000 0.000000 0.000000 82.601343 14.566639 -1.121053 -6.062433 10.147389 -0.021130 1.047878 0.568120 -6.566185 7.125000 0.000000 0.000000 
